<?xml version="1.0" encoding="UTF-8" ?>
<!DOCTYPE svg PUBLIC "-//W3C//DTD SVG 1.1//EN" "http://www.w3.org/Graphics/SVG/1.1/DTD/svg11.dtd">
<svg width="600pt" height="600pt" viewBox="0 0 600 600" version="1.1" xmlns="http://www.w3.org/2000/svg">
<g id="#000000ff">
<path fill="#000000" opacity="1.00" d=" M 304.70 45.67 C 309.25 43.43 314.79 43.45 319.35 45.68 C 324.16 48.40 326.02 54.87 324.20 59.94 C 322.72 64.18 320.97 68.34 319.82 72.69 C 317.44 81.65 313.65 90.12 310.91 98.96 C 326.95 99.05 342.99 98.93 359.02 99.01 C 363.40 99.04 368.16 100.61 370.35 104.70 C 372.99 110.35 372.93 118.43 367.55 122.47 C 363.86 125.28 360.70 128.67 357.49 131.99 C 375.43 132.33 394.04 130.22 411.20 136.75 C 419.50 140.14 427.68 144.28 434.43 150.28 C 439.94 154.47 444.51 159.71 449.39 164.58 C 450.48 164.61 451.57 164.64 452.68 164.67 C 455.53 157.65 458.04 150.43 459.76 143.05 C 461.62 135.12 456.80 128.03 455.41 120.49 C 453.86 109.90 455.44 98.04 463.12 90.01 C 474.80 78.23 495.57 78.14 508.03 88.80 C 518.37 97.44 520.96 112.91 516.28 125.18 C 514.34 131.60 509.01 136.13 506.14 142.06 C 504.22 146.44 504.19 151.34 504.01 156.04 C 504.00 195.71 504.04 235.38 504.00 275.04 C 503.72 285.57 501.56 297.04 493.48 304.50 C 489.32 309.28 483.70 312.26 478.28 315.34 C 474.68 317.20 472.33 321.02 472.25 325.06 C 471.34 342.75 473.13 360.57 470.80 378.19 C 469.32 388.66 467.41 399.08 465.56 409.50 C 464.35 414.86 462.56 420.12 460.18 425.08 C 455.28 433.86 448.42 441.29 442.61 449.44 C 422.83 476.79 394.63 497.99 362.64 508.89 C 340.65 516.53 317.30 520.69 294.00 519.94 C 277.15 518.89 260.31 516.42 244.22 511.18 C 225.83 505.35 208.03 497.06 192.71 485.23 C 171.03 469.09 153.32 447.60 141.87 423.09 C 133.65 404.49 128.81 384.35 128.03 364.01 C 127.92 352.34 128.03 340.67 127.98 329.00 C 127.92 324.96 127.68 320.39 124.54 317.42 C 120.47 313.93 115.21 312.21 111.10 308.77 C 106.62 304.92 102.28 300.62 99.87 295.13 C 96.97 288.50 96.15 281.18 95.98 274.01 C 95.99 236.33 95.97 198.66 95.99 160.98 C 95.96 155.09 96.18 149.04 94.39 143.36 C 91.82 136.74 85.77 132.08 83.73 125.19 C 81.07 118.66 80.99 111.34 82.38 104.50 C 84.43 95.24 91.24 87.39 99.85 83.60 C 109.52 79.75 120.91 80.01 130.15 84.89 C 138.89 89.56 144.31 99.13 144.91 108.89 C 145.11 113.55 145.35 118.33 144.02 122.86 C 143.05 126.68 141.49 130.32 140.42 134.12 C 139.15 139.21 140.27 144.50 141.89 149.38 C 143.64 154.50 145.11 159.72 147.32 164.67 C 148.42 164.64 149.51 164.61 150.61 164.58 C 157.15 157.73 163.89 150.98 171.69 145.55 C 182.74 138.28 195.60 133.66 208.79 132.44 C 214.35 131.75 219.96 132.04 225.55 132.00 C 226.12 127.80 226.29 122.76 229.99 119.97 C 232.41 118.07 234.86 116.17 236.66 113.64 C 238.76 110.76 241.97 108.95 244.01 106.01 C 246.72 102.37 250.63 99.98 253.84 96.86 C 265.68 85.03 277.50 73.18 289.33 61.34 C 294.70 56.36 298.61 49.89 304.70 45.67 M 237.57 130.58 C 259.59 130.66 281.62 130.47 303.64 130.67 C 298.04 149.33 291.23 167.63 285.40 186.22 C 294.66 177.54 303.34 168.26 312.46 159.42 C 328.01 143.79 343.76 128.33 359.11 112.51 C 337.24 112.32 315.37 112.64 293.50 112.36 C 299.22 93.67 305.92 75.29 311.76 56.65 C 287.00 81.26 262.52 106.17 237.57 130.58 M 98.50 97.43 C 91.93 103.70 90.33 114.45 94.54 122.44 C 97.31 128.00 102.66 131.78 108.46 133.69 C 108.43 185.34 108.24 237.01 108.55 288.65 C 111.95 293.37 116.45 297.41 120.54 301.60 C 126.87 304.48 133.33 307.53 140.18 308.95 C 140.07 320.76 140.24 332.57 140.09 344.38 C 139.77 350.58 140.35 356.77 140.20 362.98 C 140.60 386.36 147.57 409.47 159.24 429.68 C 171.95 451.29 190.02 469.77 211.43 482.84 C 230.43 494.72 251.96 502.49 274.10 505.87 C 313.44 511.89 354.86 503.89 388.71 482.83 C 423.28 461.48 449.56 426.13 457.30 385.96 C 460.32 372.33 459.86 358.32 459.84 344.45 C 459.85 332.64 459.74 320.83 459.90 309.03 L 459.89 308.70 C 465.45 308.30 470.25 305.20 475.46 303.51 C 480.76 302.04 483.55 296.96 487.40 293.48 C 488.99 291.49 491.86 289.88 491.57 286.99 C 491.54 235.89 491.63 184.79 491.53 133.69 C 495.93 132.16 500.13 129.78 503.05 126.07 C 508.95 119.09 509.28 108.28 504.26 100.74 C 498.66 92.05 486.46 88.64 477.19 93.23 C 468.21 97.33 462.75 108.09 465.46 117.71 C 466.75 123.95 471.33 128.80 476.61 132.04 C 469.46 154.37 462.36 176.72 454.99 198.98 C 446.45 172.90 424.11 151.52 397.32 145.06 C 388.56 142.79 379.46 142.52 370.46 142.71 C 363.63 142.72 356.80 142.70 349.98 142.70 C 347.21 142.36 345.21 144.66 343.29 146.28 C 339.22 151.54 334.02 155.75 329.59 160.68 C 327.03 163.11 324.65 165.71 322.05 168.09 C 314.88 173.90 308.81 180.90 302.15 187.26 C 298.32 190.78 295.78 195.92 290.63 197.79 C 284.31 200.66 274.77 198.51 272.80 191.13 C 270.97 186.34 273.17 181.40 275.00 176.98 C 277.63 171.09 278.81 164.72 280.58 158.56 C 282.59 153.55 284.29 148.43 286.06 143.34 C 281.32 143.51 276.54 143.06 271.82 143.55 C 257.74 142.76 243.61 143.87 229.54 142.67 C 215.70 142.20 201.54 143.87 188.91 149.85 C 168.36 159.23 152.06 177.50 145.00 198.95 C 137.57 176.71 130.58 154.33 123.34 132.04 C 125.79 130.31 128.35 128.64 130.30 126.32 C 135.06 120.52 136.52 112.16 133.85 105.12 C 130.89 97.46 123.34 91.52 115.02 91.28 C 108.95 90.77 102.78 93.13 98.50 97.43 Z" />
<path fill="#000000" opacity="1.00" d=" M 175.13 263.11 C 178.67 258.01 184.71 254.87 190.92 254.83 C 203.79 254.71 216.66 254.83 229.53 254.79 C 276.50 254.78 323.47 254.78 370.44 254.79 C 383.29 254.83 396.15 254.72 409.00 254.83 C 416.16 254.81 423.12 259.04 426.26 265.49 C 428.01 269.07 428.20 273.14 428.19 277.05 C 428.14 294.02 428.16 311.00 428.19 327.97 C 428.17 332.00 427.84 336.21 425.85 339.81 C 422.70 345.92 415.87 349.77 409.04 349.63 C 336.34 349.66 263.65 349.65 190.95 349.63 C 184.12 349.77 177.30 345.93 174.16 339.81 C 171.32 334.69 171.85 328.61 171.80 322.96 C 171.81 307.31 171.82 291.66 171.79 276.01 C 171.78 271.54 172.44 266.81 175.13 263.11 M 217.45 267.66 C 208.24 269.50 202.64 278.29 199.85 286.62 C 196.18 298.29 196.58 311.44 201.70 322.62 C 204.59 328.82 209.39 334.97 216.40 336.53 C 222.43 338.38 228.97 335.51 233.04 330.98 C 240.16 323.23 242.95 312.35 242.71 302.02 C 242.85 291.47 239.78 280.33 232.15 272.71 C 228.37 268.87 222.83 266.73 217.45 267.66 M 372.93 269.08 C 365.24 273.00 360.96 281.24 358.72 289.23 C 356.25 300.11 356.62 311.93 361.18 322.22 C 363.98 328.21 368.36 334.08 374.85 336.27 C 379.41 337.20 384.63 337.26 388.60 334.47 C 394.04 330.99 397.38 325.16 399.73 319.30 C 403.59 308.09 403.51 295.52 399.34 284.40 C 397.08 278.65 393.49 273.13 388.14 269.83 C 383.66 266.97 377.67 266.68 372.93 269.08 Z" />
<path fill="#000000" opacity="1.00" d=" M 247.78 396.33 C 282.59 396.25 317.40 396.27 352.20 396.32 C 352.20 403.94 352.25 411.56 352.21 419.18 C 352.73 421.16 350.32 421.29 349.04 421.18 C 321.03 421.13 293.02 421.17 265.00 421.16 C 259.24 420.96 253.43 421.64 247.72 420.71 C 247.85 412.58 247.74 404.45 247.78 396.33 Z" />
</g>
<g id="#ffc93aff">
<path fill="#ffc93a" opacity="1.00" d=" M 237.57 130.58 C 262.52 106.17 287.00 81.26 311.76 56.65 C 305.92 75.29 299.22 93.67 293.50 112.36 C 315.37 112.64 337.24 112.32 359.11 112.51 C 343.76 128.33 328.01 143.79 312.46 159.42 C 303.34 168.26 294.66 177.54 285.40 186.22 C 291.23 167.63 298.04 149.33 303.64 130.67 C 281.62 130.47 259.59 130.66 237.57 130.58 Z" />
</g>
<g id="#757575ff">
<path fill="#757575" opacity="1.00" d=" M 98.50 97.43 C 102.78 93.13 108.95 90.77 115.02 91.28 C 123.34 91.52 130.89 97.46 133.85 105.12 C 136.52 112.16 135.06 120.52 130.30 126.32 C 128.35 128.64 125.79 130.31 123.34 132.04 C 130.58 154.33 137.57 176.71 145.00 198.95 C 142.56 207.09 140.33 215.43 140.20 223.99 C 140.20 252.31 140.24 280.63 140.18 308.95 C 133.33 307.53 126.87 304.48 120.54 301.60 C 116.45 297.41 111.95 293.37 108.55 288.65 C 108.24 237.01 108.43 185.34 108.46 133.69 C 102.66 131.78 97.31 128.00 94.54 122.44 C 90.33 114.45 91.93 103.70 98.50 97.43 Z" />
<path fill="#757575" opacity="1.00" d=" M 477.19 93.23 C 486.46 88.64 498.66 92.05 504.26 100.74 C 509.28 108.28 508.95 119.09 503.05 126.07 C 500.13 129.78 495.93 132.16 491.53 133.69 C 491.63 184.79 491.54 235.89 491.57 286.99 C 491.86 289.88 488.99 291.49 487.40 293.48 C 483.55 296.96 480.76 302.04 475.46 303.51 C 470.25 305.20 465.45 308.30 459.89 308.70 C 459.57 281.46 459.80 254.21 459.78 226.97 C 460.04 217.42 457.79 208.04 454.99 198.98 C 462.36 176.72 469.46 154.37 476.61 132.04 C 471.33 128.80 466.75 123.95 465.46 117.71 C 462.75 108.09 468.21 97.33 477.19 93.23 Z" />
<path fill="#757575" opacity="1.00" d=" M 140.09 344.38 C 163.75 364.33 187.57 384.08 211.27 404.00 C 211.41 430.27 211.08 456.56 211.43 482.84 C 190.02 469.77 171.95 451.29 159.24 429.68 C 147.57 409.47 140.60 386.36 140.20 362.98 C 140.35 356.77 139.77 350.58 140.09 344.38 Z" />
<path fill="#757575" opacity="1.00" d=" M 388.73 404.01 C 412.37 384.08 436.19 364.37 459.84 344.45 C 459.86 358.32 460.32 372.33 457.30 385.96 C 449.56 426.13 423.28 461.48 388.71 482.83 C 388.73 456.56 388.69 430.28 388.73 404.01 Z" />
</g>
<g id="#ccccccff">
<path fill="#cccccc" opacity="1.00" d=" M 188.91 149.85 C 201.54 143.87 215.70 142.20 229.54 142.67 C 229.45 180.04 229.47 217.42 229.53 254.79 C 216.66 254.83 203.79 254.71 190.92 254.83 C 184.71 254.87 178.67 258.01 175.13 263.11 C 172.44 266.81 171.78 271.54 171.79 276.01 C 171.82 291.66 171.81 307.31 171.80 322.96 C 171.85 328.61 171.32 334.69 174.16 339.81 C 177.30 345.93 184.12 349.77 190.95 349.63 C 263.65 349.65 336.34 349.66 409.04 349.63 C 415.87 349.77 422.70 345.92 425.85 339.81 C 427.84 336.21 428.17 332.00 428.19 327.97 C 428.16 311.00 428.14 294.02 428.19 277.05 C 428.20 273.14 428.01 269.07 426.26 265.49 C 423.12 259.04 416.16 254.81 409.00 254.83 C 396.15 254.72 383.29 254.83 370.44 254.79 C 370.57 217.43 370.53 180.07 370.46 142.71 C 379.46 142.52 388.56 142.79 397.32 145.06 C 424.11 151.52 446.45 172.90 454.99 198.98 C 457.79 208.04 460.04 217.42 459.78 226.97 C 459.80 254.21 459.57 281.46 459.89 308.70 L 459.90 309.03 C 459.74 320.83 459.85 332.64 459.84 344.45 C 436.19 364.37 412.37 384.08 388.73 404.01 C 388.69 430.28 388.73 456.56 388.71 482.83 C 354.86 503.89 313.44 511.89 274.10 505.87 C 251.96 502.49 230.43 494.72 211.43 482.84 C 211.08 456.56 211.41 430.27 211.27 404.00 C 187.57 384.08 163.75 364.33 140.09 344.38 C 140.24 332.57 140.07 320.76 140.18 308.95 C 140.24 280.63 140.20 252.31 140.20 223.99 C 140.33 215.43 142.56 207.09 145.00 198.95 C 152.06 177.50 168.36 159.23 188.91 149.85 M 247.78 396.33 C 247.74 404.45 247.85 412.58 247.72 420.71 C 253.43 421.64 259.24 420.96 265.00 421.16 C 293.02 421.17 321.03 421.13 349.04 421.18 C 350.32 421.29 352.73 421.16 352.21 419.18 C 352.25 411.56 352.20 403.94 352.20 396.32 C 317.40 396.27 282.59 396.25 247.78 396.33 Z" />
</g>
<g id="#ffffffff">
<path fill="#ffffff" opacity="1.00" d=" M 229.54 142.67 C 243.61 143.87 257.74 142.76 271.82 143.55 C 271.47 143.73 270.76 144.07 270.41 144.24 C 270.36 168.49 270.39 192.74 270.40 216.99 C 270.23 228.60 282.40 236.46 293.01 236.70 C 301.13 236.60 309.81 237.89 317.35 234.14 C 324.00 231.18 329.90 224.67 329.57 217.02 C 329.61 198.24 329.53 179.46 329.59 160.68 C 334.02 155.75 339.22 151.54 343.29 146.28 C 345.21 144.66 347.21 142.36 349.98 142.70 C 356.80 142.70 363.63 142.72 370.46 142.71 C 370.53 180.07 370.57 217.43 370.44 254.79 C 323.47 254.78 276.50 254.78 229.53 254.79 C 229.47 217.42 229.45 180.04 229.54 142.67 Z" />
</g>
<g id="#f03917ff">
<path fill="#f03917" opacity="1.00" d=" M 271.82 143.55 C 276.54 143.06 281.32 143.51 286.06 143.34 C 284.29 148.43 282.59 153.55 280.58 158.56 C 278.81 164.72 277.63 171.09 275.00 176.98 C 273.17 181.40 270.97 186.34 272.80 191.13 C 274.77 198.51 284.31 200.66 290.63 197.79 C 295.78 195.92 298.32 190.78 302.15 187.26 C 308.81 180.90 314.88 173.90 322.05 168.09 C 324.65 165.71 327.03 163.11 329.59 160.68 C 329.53 179.46 329.61 198.24 329.57 217.02 C 329.90 224.67 324.00 231.18 317.35 234.14 C 309.81 237.89 301.13 236.60 293.01 236.70 C 282.40 236.46 270.23 228.60 270.40 216.99 C 270.39 192.74 270.36 168.49 270.41 144.24 C 270.76 144.07 271.47 143.73 271.82 143.55 Z" />
</g>
<g id="#30d2f8ff">
<path fill="#30d2f8" opacity="1.00" d=" M 217.45 267.66 C 222.83 266.73 228.37 268.87 232.15 272.71 C 239.78 280.33 242.85 291.47 242.71 302.02 C 242.95 312.35 240.16 323.23 233.04 330.98 C 228.97 335.51 222.43 338.38 216.40 336.53 C 209.39 334.97 204.59 328.82 201.70 322.62 C 196.58 311.44 196.18 298.29 199.85 286.62 C 202.64 278.29 208.24 269.50 217.45 267.66 Z" />
<path fill="#30d2f8" opacity="1.00" d=" M 372.93 269.08 C 377.67 266.68 383.66 266.97 388.14 269.83 C 393.49 273.13 397.08 278.65 399.34 284.40 C 403.51 295.52 403.59 308.09 399.73 319.30 C 397.38 325.16 394.04 330.99 388.60 334.47 C 384.63 337.26 379.41 337.20 374.85 336.27 C 368.36 334.08 363.98 328.21 361.18 322.22 C 356.62 311.93 356.25 300.11 358.72 289.23 C 360.96 281.24 365.24 273.00 372.93 269.08 Z" />
</g>
</svg>
